<?xml version="1.0" encoding="utf-8"?>
<!-- Generator: Adobe Illustrator 19.1.0, SVG Export Plug-In . SVG Version: 6.00 Build 0)  -->
<svg version="1.1" id="Layer_1" xmlns="http://www.w3.org/2000/svg" xmlns:xlink="http://www.w3.org/1999/xlink" x="0px" y="0px"
	 viewBox="0 0 32.4 46.3" style="enable-background:new 0 0 32.4 46.3;" xml:space="preserve">
<style type="text/css">
	.st0{fill:#FFFFFF;}
</style>
<g id="Layer_2">
	<g id="Layer_6">
	</g>
	<g id="Layer_5">
	</g>
	<g id="Layer_4">
	</g>
	<g id="Layer_3">
		<path class="st0" d="M16.2,0C7.2,0,0,7.2,0,16.2c0,12.1,16.2,30.1,16.2,30.1s16.2-17.9,16.2-30.1C32.4,7.2,25.1,0,16.2,0z
			 M20.5,11.1c0.9,0,1.6,0.7,1.6,1.6c0,0.9-0.7,1.6-1.6,1.6s-1.6-0.7-1.6-1.6C18.9,11.8,19.6,11.1,20.5,11.1z M12,11.1
			c0.9,0,1.6,0.7,1.6,1.6c0,0.9-0.7,1.6-1.6,1.6s-1.6-0.7-1.6-1.6C10.4,11.8,11.1,11.1,12,11.1z M16,25.1c-3.9,0-7.1-2.1-7.1-7.1
			h14.3C23.2,23,20,25.1,16,25.1z"/>
	</g>
</g>
</svg>
