<?xml version="1.0" encoding="utf-8"?>
<!-- Generator: Adobe Illustrator 19.1.0, SVG Export Plug-In . SVG Version: 6.00 Build 0)  -->
<svg version="1.1" id="Layer_1" xmlns="http://www.w3.org/2000/svg" xmlns:xlink="http://www.w3.org/1999/xlink" x="0px" y="0px"
	 viewBox="0 0 48 48" style="enable-background:new 0 0 48 48;" xml:space="preserve">
<style type="text/css">
	.st0{fill:#FFFFFF;}
</style>
<path class="st0" d="M25.2,1C16.3,1,9,8.2,9,17.2c0,12.1,16.2,30.1,16.2,30.1s16.2-17.9,16.2-30.1C41.4,8.2,34.2,1,25.2,1z
	 M29.1,10.8c0.7,0,1.2,0.6,1.2,1.2s-0.6,1.2-1.2,1.2s-1.2-0.6-1.2-1.2S28.4,10.8,29.1,10.8z M21.7,10.8c0.7,0,1.2,0.6,1.2,1.2
	s-0.6,1.2-1.2,1.2c-0.7,0-1.2-0.6-1.2-1.2S21,10.8,21.7,10.8z M25.3,22.9c-3.2,0-5.9-1.9-5.9-5.9h11.7C31.2,21,28.6,22.9,25.3,22.9z
	"/>
</svg>
