<?xml version="1.0" encoding="utf-8"?>
<!-- Generator: Adobe Illustrator 19.1.0, SVG Export Plug-In . SVG Version: 6.00 Build 0)  -->
<svg version="1.1" xmlns="http://www.w3.org/2000/svg" xmlns:xlink="http://www.w3.org/1999/xlink" x="0px" y="0px"
	 viewBox="0 0 100 100" style="enable-background:new 0 0 100 100;" xml:space="preserve">
<style type="text/css">
	.st0{display:none;}
	.st1{display:inline;fill:#333333;}
	.st2{display:inline;}
	.st3{fill:none;stroke:#333333;stroke-width:3;stroke-linecap:round;stroke-miterlimit:10;}
	.st4{fill:#333333;}
	.st5{fill:#333333;stroke:#FFFFFF;stroke-width:2;stroke-miterlimit:10;}
	.st6{fill:none;}
	.st7{fill:#33796C;}
	.st8{font-family:'Roboto-Regular';}
	.st9{font-size:37.4205px;}
</style>
<g id="Layer_1" class="st0">
	<path class="st1" d="M48.6,4.1c-44.1,0.3-48,10-48,36.1c0,38.6,13,36.2,48,36.1c15.7,0,50.8-1.8,31.5-3.7l-1,21.2l14.5-23.4
		c1.1-1.5,1.9-3.6,2.4-5.2c0.1-0.4,1-3.2,1.1-3.6l0.7-3.8c0.7-5.3,1.5-11.4,1.5-17.9C99.3,20,102.6,3.7,48.6,4.1z M60.5,29.2
		c2.3-1.5,4.7,0.9,3.2,3.2c-0.1,0.1-0.2,0.2-0.3,0.3c-2.3,1.5-4.7-0.9-3.2-3.2C60.2,29.4,60.3,29.3,60.5,29.2z M35.5,29.2
		c2.3-1.5,4.7,0.9,3.2,3.2c-0.1,0.1-0.2,0.2-0.3,0.3c-2.3,1.5-4.7-0.9-3.2-3.2C35.2,29.4,35.3,29.3,35.5,29.2z M49,62.9
		C38.5,62.9,29.8,56,28.2,45h41.5C68.2,56,59.5,62.9,49,62.9z"/>
</g>
<g id="Layer_2" class="st0">
	<g class="st2">
		<path class="st3" d="M70.1,33c3.2,7.9-0.6,16-0.6,16"/>
		<path class="st3" d="M77.6,30.3c4.4,10.6-0.8,21.6-0.8,21.6"/>
		<path class="st3" d="M84.8,25c6.5,15.7-1.2,31.9-1.2,31.9"/>
	</g>
	<path class="st1" d="M4.1,96h68.6c-0.1-16.9-8.5-31.5-20.4-37.9c6.2-4.4,10.2-11.6,10.2-19.7c0-13.3-10.8-24.2-24.2-24.2
		c-13.3,0-24.2,10.8-24.2,24.2c0,8.2,4.1,15.4,10.2,19.7C12.6,64.5,4.3,79.1,4.1,96z M44.7,30.1c1.1,0,1.9,0.9,1.9,1.9
		c0,1.1-0.9,1.9-1.9,1.9c-1.1,0-1.9-0.9-1.9-1.9C42.8,31,43.7,30.1,44.7,30.1z M30.8,30.1c1.1,0,1.9,0.9,1.9,1.9
		c0,1.1-0.9,1.9-1.9,1.9c-1.1,0-1.9-0.9-1.9-1.9C28.8,31,29.7,30.1,30.8,30.1z M48.6,40c-0.2,5-4.9,10.2-10.6,10.2S27.7,45,27.5,40
		H48.6z"/>
</g>
<g id="Layer_3" class="st0">
	<path class="st1" d="M65,54.1l-5.1,4.8l2-6.7l2.1-7c-7.6-2.6-13-8.4-14.3-15.3c-1.9-0.4-3.9-0.6-6-0.6c-17.3,0-31.3,14-31.3,31.3
		S26.4,92,43.7,92S75,78,75,60.7c0-4.7-1.1-9.2-3-13.3L65,54.1z M52.1,51.9c1.5,0,2.6,1.2,2.6,2.6c0,1.5-1.2,2.6-2.6,2.6
		s-2.6-1.2-2.6-2.6C49.5,53,50.7,51.9,52.1,51.9z M34.6,51.9c1.5,0,2.6,1.2,2.6,2.6c0,1.5-1.2,2.6-2.6,2.6s-2.6-1.2-2.6-2.6
		C31.9,53,33.1,51.9,34.6,51.9z M43.6,78.4c-8,0-14.5-6.5-15.1-14h30.2C58.1,71.9,51.6,78.4,43.6,78.4z"/>
	<g class="st2">
		<polygon class="st4" points="66.2,26 69.4,26 67.8,21.2 		"/>
		<path class="st4" d="M73.8,24c0.6,1,1.5,3.1,2.7,4.3c1.1-1.2,1.9-2.3,2.6-4.3H73.8z"/>
		<path class="st4" d="M72.8,8c-11.9,0-21.6,8.2-21.6,18.4c0,8.2,6.4,15.2,15.1,17.5l-2.6,8.8l8.4-7.9c0.2,0,0.5,0,0.7,0
			c11.9,0,21.6-8.2,21.6-18.4C94.5,16.2,84.8,8,72.8,8z M65.5,28l-0.9,3h-2.8l4.8-13H69l5,12.8l-2.8,0.1L70.1,28H65.5z M82.3,33.6
			c-2.4-0.6-4.4-1.6-5.9-2.9c-1.6,1.3-3.6,2.3-5.8,3c-0.2-0.5-0.8-1.2-1.1-1.7c1.2-0.3,2.3-1,3.3-1h1.8l-0.3-1
			c0.3-0.2,0.6-0.5,0.9-0.7c-1.2-1.3-2.1-2.9-2.8-4.7l-1-2.6H75v-2h2v2h6v2h-1.9c-0.8,2-1.9,3.9-3.3,5.4c1.5,1.2,3.4,2,5.7,2.5
			C83.1,32.3,82.6,33.1,82.3,33.6z"/>
	</g>
</g>
<g id="Layer_3_copy" class="st0">
	<path class="st4" d="M65,54.1l-5.1,4.8l2-6.7l2.1-7c-7.6-2.6-13-8.4-14.3-15.3c-1.9-0.4-3.9-0.6-6-0.6c-17.3,0-31.3,14-31.3,31.3
		S26.4,92,43.7,92S75,78,75,60.7c0-4.7-1.1-9.2-3-13.3L65,54.1z M52.1,51.9c1.5,0,2.6,1.2,2.6,2.6c0,1.5-1.2,2.6-2.6,2.6
		s-2.6-1.2-2.6-2.6C49.5,53,50.7,51.9,52.1,51.9z M34.6,51.9c1.5,0,2.6,1.2,2.6,2.6c0,1.5-1.2,2.6-2.6,2.6s-2.6-1.2-2.6-2.6
		C31.9,53,33.1,51.9,34.6,51.9z M43.6,78.4c-8,0-14.5-6.5-15.1-14h30.2C58.1,71.9,51.6,78.4,43.6,78.4z"/>
	<g class="st2">
		<polygon class="st5" points="37.6,40 43.9,40 40.7,30.6 		"/>
		<path class="st5" d="M52.5,36c1.2,2,3,6,5.2,8.4c2.1-2.3,3.8-4.4,5.1-8.4H52.5z"/>
		<path class="st5" d="M50.6,4C27.2,4,8.2,20.1,8.2,40.1c0,16.2,12.5,29.8,29.7,34.4l-5.1,17.2l16.4-15.6c0.5,0,0.9,0.1,1.4,0.1
			C74.1,76.1,93,60,93,40.1C93,20.1,74.1,4,50.6,4z M36.2,44l-1.7,6H29l9.3-25h4.8l10.2,24.1l-5.8,0.3L45.3,44H36.2z M69.2,54.2
			c-4.7-1.2-8.6-3.1-11.7-5.8c-3.2,2.6-7,4.5-11.5,6c-0.4-0.9-1.5-2-2.2-2.8c2.3-0.6,4.5-1.6,6.4-1.6h3.5l-0.6-2.3
			c0.6-0.4,1.2-1.2,1.7-1.6c-2.3-2.6-4.1-5.5-5.6-9.1L47.4,32H54v-3h4v3h12v4h-3.1c-1.6,4-3.7,7.3-6.4,10.2c3,2.3,6.7,3.8,11.2,4.8
			C70.8,51.9,69.7,53.2,69.2,54.2z"/>
	</g>
</g>
<g id="Layer_5">
	<rect x="27.8" y="23.4" class="st6" width="25.8" height="31"/>
	<text transform="matrix(1 0 0 1 27.8331 51.463)" class="st7 st8 st9">A</text>
	<g>
		<path class="st7" d="M49.1,47.9c-2.1,1-4.3,1.8-6.8,2.6c0.5,0.6,1.3,1.8,1.6,2.4c2.2-0.7,4.3-1.5,6.2-2.5L49.1,47.9z"/>
		<path class="st7" d="M59.5,43.6C63,40.1,65.6,36,67.6,30H73v-2H59v-6h-3v6H44l1,2h2.6c1.9,6,4.5,10,8,13.7c-1.3,1.1-2.7,2.1-4.2,3
			l1,2.5c1.9-1.1,3.6-2.2,5.1-3.5c3.7,3.3,8.3,5.7,13.9,7.2c0.4-0.7,1.2-1.9,1.8-2.5C67.7,49,63.1,46.7,59.5,43.6z M50.3,30h14.4
			c-1.7,5-4.1,8.6-7.1,11.7C54.4,38.5,52,35,50.3,30z"/>
	</g>
	<path class="st7" d="M50.8,4.3C28.9,4.3,11,19.8,11,38.9c0,7.7,2.8,14.9,8.1,21c4,4.6,9.2,8.2,15.1,10.5L31.4,80l-5.3,17.7
		l13.4-12.7l12-11.4c21.6-0.4,39.1-15.7,39.1-34.6C90.7,19.8,72.8,4.3,50.8,4.3z M50.8,71.1c-0.1,0-0.1,0-0.2,0L31.2,89.5l6.1-20.6
		c-14.4-4.8-23.8-16.6-23.8-30c0-17.7,16.8-32.1,37.4-32.1s37.4,14.4,37.4,32.1S71.4,71.1,50.8,71.1z"/>
</g>
</svg>
